/* XPM */
static char * del_xpm[] = {
"17 17 107 2",
"  	c None",
". 	c #6A3936",
"+ 	c #672F2A",
"@ 	c #703B36",
"# 	c #612621",
"$ 	c #5C1F1A",
"% 	c #5C1D18",
"& 	c #541A16",
"* 	c #F6E7E7",
"= 	c #F3DADA",
"- 	c #F3D7D5",
"; 	c #EABEB9",
"> 	c #E6B9B5",
", 	c #D7A29C",
"' 	c #A15C54",
") 	c #3B1414",
"! 	c #E6E6E6",
"~ 	c #FFFFFF",
"{ 	c #DB7975",
"] 	c #DA807C",
"^ 	c #D98680",
"/ 	c #D27E78",
"( 	c #CA7169",
"_ 	c #C56460",
": 	c #BB4744",
"< 	c #901414",
"[ 	c #341414",
"} 	c #D97570",
"| 	c #DF7F7B",
"1 	c #DD7772",
"2 	c #DF8580",
"3 	c #DC7D78",
"4 	c #DE7E7A",
"5 	c #D4817C",
"6 	c #D16E66",
"7 	c #A71414",
"8 	c #8E1414",
"9 	c #291414",
"0 	c #F6ECEB",
"a 	c #DA7D7A",
"b 	c #DF7E7D",
"c 	c #DB746F",
"d 	c #FEF3F3",
"e 	c #D46B66",
"f 	c #DC7875",
"g 	c #D46C67",
"h 	c #CA544E",
"i 	c #C12C24",
"j 	c #671414",
"k 	c #1A1414",
"l 	c #F3D8D7",
"m 	c #D77570",
"n 	c #DE7A78",
"o 	c #C0231C",
"p 	c #A61414",
"q 	c #7A1414",
"r 	c #1E1414",
"s 	c #B5B5B5",
"t 	c #F1C8C6",
"u 	c #DA7F7B",
"v 	c #CB655E",
"w 	c #C23333",
"x 	c #B51414",
"y 	c #7D1414",
"z 	c #AAAAAA",
"A 	c #642722",
"B 	c #EABFBB",
"C 	c #CB6661",
"D 	c #DC7B77",
"E 	c #DD7978",
"F 	c #CB635C",
"G 	c #C65451",
"H 	c #C55252",
"I 	c #E7B8B4",
"J 	c #CA655D",
"K 	c #DC7A78",
"L 	c #CE6F67",
"M 	c #B81515",
"N 	c #D9A8A2",
"O 	c #C56058",
"P 	c #D47D77",
"Q 	c #C75950",
"R 	c #BC1414",
"S 	c #AE7269",
"T 	c #C15350",
"U 	c #CA5953",
"V 	c #C85148",
"W 	c #C55047",
"X 	c #C13228",
"Y 	c #961414",
"Z 	c #6A1414",
"` 	c #411414",
" .	c #C0231F",
"..	c #C2271F",
"+.	c #BE2727",
"@.	c #BA1414",
"#.	c #B71414",
"$.	c #B41414",
"%.	c #761414",
"&.	c #2F1414",
"*.	c #9C9C9C",
"=.	c #B51616",
"-.	c #911414",
";.	c #B3B3B3",
">.	c #6B1414",
",.	c #B6B6B6",
"'.	c #ABABAB",
"        . + @ # $ % &             ",
"      . * = - ; > , ' ) !         ",
"    . ~ { ] ^ / ( _ : < [ !       ",
"  . ~ } | 1 2 3 4 5 6 7 8 9 !     ",
". 0 a b c d e f g d h i 7 j k !   ",
". l m n d d d g d d d o p q r s   ",
". t g u g d d d d d v w x y r z   ",
"A B C D E g d d d F G H x y r z   ",
"$ I J K g d d d d d L M p y r z   ",
"% N O P d d d Q d d d R p q r z   ",
"& S T U V d Q W X d x p Y Z k z   ",
"  ` < 7  ...+.@.#.$.p Y %.&.*.s   ",
"  ! [ 8 7 x =.x p p -.%.&.*.;.!   ",
"    ! [ >.q y y y q Z &.*.;.!     ",
"      ! k r r r r r k *.;.!       ",
"        ! ,.'.z z z z ,.!         ",
"                                  "};
